<?xml version="1.0" standalone="no"?>
<!DOCTYPE svg PUBLIC "-//W3C//DTD SVG 20010904//EN"
 "http://www.w3.org/TR/2001/REC-SVG-20010904/DTD/svg10.dtd">
<svg version="1.0" xmlns="http://www.w3.org/2000/svg"
 width="1000.000000pt" height="298.000000pt" viewBox="0 0 1000.000000 298.000000"
 preserveAspectRatio="xMidYMid meet">

<g transform="translate(0.000000,298.000000) scale(0.100000,-0.100000)"
fill="#000000" stroke="none">
<path d="M1275 2939 c-603 -87 -1088 -548 -1221 -1159 -27 -122 -27 -458 0
-580 134 -616 621 -1074 1230 -1159 110 -15 325 -14 431 4 618 100 1105 583
1211 1200 22 133 22 357 0 490 -106 617 -593 1100 -1211 1200 -98 16 -341 18
-440 4z m153 -721 c22 -63 71 -139 104 -162 29 -21 20 -27 -49 -33 -46 -4 -90
2 -207 31 -81 20 -161 36 -177 36 l-29 0 20 51 c43 114 135 236 240 320 l65
52 6 -119 c4 -82 13 -137 27 -176z m-349 -480 c23 -68 70 -145 96 -155 8 -3
15 -10 15 -15 0 -21 -114 -3 -182 29 -73 34 -176 106 -185 129 -15 40 90 218
173 294 l49 45 6 -130 c4 -97 11 -147 28 -197z m432 -4 c83 -25 215 -95 309
-164 251 -185 417 -443 454 -707 l6 -43 -62 -46 c-75 -56 -161 -97 -243 -119
-85 -22 -101 -19 -158 22 -84 62 -159 178 -192 298 l-14 50 0 -55 c-1 -75 21
-159 67 -250 20 -41 39 -79 41 -84 2 -5 -40 -7 -104 -3 l-107 7 -57 -35 c-68
-42 -123 -62 -209 -76 -63 -10 -172 -4 -172 10 0 3 13 13 29 22 34 20 71 92
71 141 0 33 -4 38 -66 74 -136 79 -255 228 -310 389 -26 73 -28 93 -29 230 0
115 4 167 19 223 10 39 21 72 25 72 4 0 23 -16 42 -36 75 -79 230 -161 348
-185 188 -37 323 108 242 259 -15 27 -6 28 70 6z"/>
<path d="M1961 994 c-25 -32 -25 -33 -5 -62 17 -25 71 -31 92 -10 20 20 14 65
-10 82 -32 23 -54 20 -77 -10z"/>
<path d="M4133 2460 c-118 -21 -248 -92 -319 -173 -20 -23 -52 -75 -72 -115
-30 -63 -35 -86 -41 -174 l-6 -102 -77 -20 -78 -20 0 -58 0 -58 80 0 80 0 0
-404 0 -405 -57 -6 c-108 -11 -103 -8 -103 -75 l0 -60 340 0 340 0 0 60 c0 69
6 65 -122 75 l-78 7 0 404 0 404 120 0 120 0 0 80 0 80 -121 0 -121 0 4 136 3
136 34 30 c33 29 37 30 106 26 48 -3 90 -13 128 -31 l57 -26 0 138 0 139 -25
6 c-47 12 -140 15 -192 6z"/>
<path d="M9545 2406 l-170 -21 0 -60 0 -59 45 -8 c25 -4 55 -10 68 -13 l22 -5
0 -655 0 -654 -47 -6 c-74 -10 -73 -9 -73 -75 l0 -60 285 0 286 0 -3 63 -3 62
-62 8 -63 9 0 730 0 730 -22 19 c-28 23 -46 22 -263 -5z"/>
<path d="M4800 2034 c-120 -25 -360 -165 -360 -210 0 -12 34 -70 66 -112 1 -2
32 17 68 42 36 25 89 52 118 61 131 39 258 3 308 -85 49 -88 27 -218 -61 -367
-64 -107 -295 -317 -460 -419 -32 -20 -59 -40 -59 -43 0 -3 9 -28 19 -56 l19
-50 496 -3 c273 -1 496 0 496 3 0 8 50 319 55 341 4 18 -3 22 -46 32 -82 19
-81 19 -124 -68 -21 -44 -41 -80 -45 -80 -3 0 -126 -14 -275 -30 -148 -16
-271 -27 -272 -26 -2 2 34 26 79 54 139 85 248 170 359 281 90 90 112 119 150
195 43 88 44 91 44 190 0 90 -3 107 -28 158 -80 162 -309 243 -547 192z"/>
<path d="M6220 1915 c-65 -19 -153 -69 -185 -107 -13 -16 -26 -28 -29 -28 -3
0 -6 25 -6 55 0 48 -3 57 -26 72 -24 16 -35 15 -182 -1 -222 -25 -202 -15
-202 -102 l0 -74 60 -17 60 -18 0 -626 0 -626 -60 -13 -60 -13 0 -58 0 -59
305 0 305 0 0 59 0 59 -85 12 -85 12 0 117 c0 64 -3 140 -7 169 l-6 53 39 -8
c64 -13 204 -7 269 11 264 77 425 307 425 608 0 120 -22 232 -61 314 -38 80
-127 164 -206 194 -75 29 -189 35 -263 15z m43 -179 c51 -21 94 -78 119 -159
20 -63 23 -92 22 -232 0 -173 -13 -244 -58 -334 -45 -89 -116 -128 -213 -118
-30 3 -66 13 -79 22 l-24 16 2 376 3 376 26 19 c59 44 144 59 202 34z"/>
<path d="M7410 1920 c-301 -31 -489 -255 -490 -583 0 -252 97 -432 280 -520
97 -46 180 -61 295 -53 94 7 214 41 275 79 53 32 126 104 159 155 16 26 42 83
58 127 25 73 27 92 28 225 0 112 -4 158 -19 204 -60 199 -188 320 -381 361
-74 16 -101 16 -205 5z m140 -152 c49 -34 68 -65 91 -153 26 -103 37 -328 20
-443 -28 -188 -85 -272 -186 -272 -90 0 -141 50 -176 172 -22 75 -24 102 -24
283 0 179 2 207 22 271 25 78 51 117 97 145 44 27 114 25 156 -3z"/>
<path d="M8665 1919 c-239 -28 -409 -181 -461 -415 -23 -104 -16 -302 15 -396
44 -138 155 -257 288 -309 79 -31 279 -39 374 -15 201 51 330 180 386 387 23
85 23 278 -1 373 -46 189 -182 327 -367 371 -69 16 -125 17 -234 4z m156 -152
c77 -51 113 -186 113 -432 0 -141 -4 -183 -21 -247 -38 -141 -78 -183 -173
-183 -99 0 -145 50 -181 198 -18 76 -22 118 -21 247 1 234 39 370 116 420 44
28 123 27 167 -3z"/>
</g>
</svg>
