<?xml version="1.0" encoding="UTF-8"?>
<svg version="1.1" xmlns="http://www.w3.org/2000/svg" width="200" height="200">
<path d="M0 0 C2.53151216 2.00649629 4.74511016 4.19604715 6.94140625 6.5546875 C7.45646729 7.09931641 7.97152832 7.64394531 8.50219727 8.20507812 C9.52216408 9.29670276 10.52256083 10.4070357 11.49975586 11.53710938 C13.4810039 13.67143397 15.14293375 15.35891131 18.09130859 15.8112793 C20.08425705 15.7867175 22.07484033 15.64715939 24.0625 15.5 C28.50130472 16.80102897 30.90714561 18.09195973 33.5 21.8125 C36.98975851 26.31419391 41.90426205 27.52764274 47.08642578 29.2956543 C54.24697351 31.78465471 59.76413906 35.10885107 64.0625 41.5 C64.6875 44.25 64.6875 44.25 64.0625 47.5 C61.95813959 50.40003897 59.58718529 52.96243366 57.0625 55.5 C60.0937235 59.12268175 63.05983494 62.52027947 66.5625 65.6875 C73.15251179 72.11642261 77.13525101 81.49789211 77.35546875 90.60546875 C77.49946888 108.25988433 70.83679929 117.77034552 58.69750977 130.13964844 C56.22579495 132.63910898 53.74104783 135.1252764 51.25390625 137.609375 C49.9190495 138.94812833 48.58441307 140.28710137 47.24998474 141.62628174 C44.46715575 144.41652727 41.68054345 147.20292608 38.89135742 149.98681641 C35.33470107 153.53766589 31.78957558 157.09978669 28.24742222 160.66509628 C25.49958464 163.42772583 22.74478698 166.18333343 19.98798943 168.93701935 C18.67844317 170.24707546 17.37122705 171.55946548 16.06649971 172.87432098 C4.37200715 184.64847779 -5.46892465 193.66339037 -22.75 194 C-47.44691568 193.85068982 -64.60606095 169.14570207 -80.8515625 152.9909668 C-83.74129751 150.11908374 -86.63932469 147.25597857 -89.54492188 144.40014648 C-93.08423724 140.92132823 -96.60831602 137.42772517 -100.12233734 133.92336464 C-101.45191591 132.60227872 -102.7865741 131.28628252 -104.12662506 129.97582054 C-114.70230662 119.6214327 -122.94308424 110.00732259 -123.25 94.5 C-123.2695046 76.6901368 -113.43969795 66.75504881 -101.59181213 54.85076904 C-100.23992304 53.49914135 -98.88769618 52.14785141 -97.53515625 50.796875 C-96.12921274 49.38703724 -94.72349047 47.97697882 -93.31797791 46.56671143 C-90.38374645 43.62505366 -87.44571673 40.68725431 -84.50512695 37.75195312 C-80.7499286 34.00256131 -77.00625113 30.24189447 -73.26555729 26.47803879 C-70.37020079 23.56791035 -67.46790408 20.66478099 -64.56359673 17.76358795 C-63.18065636 16.38013667 -61.8000559 14.994342 -60.42192268 13.60610199 C-58.4916198 11.66337737 -56.55190216 9.73054233 -54.60961914 7.79980469 C-53.77158752 6.95030746 -53.77158752 6.95030746 -52.91662598 6.08364868 C-38.6621061 -7.98550215 -17.09491113 -11.84032779 0 0 Z M-54.62133789 67.0703125 C-55.80351217 68.25264608 -56.98291539 69.43775415 -58.16015625 70.625 C-58.78023056 71.24648926 -59.40030487 71.86797852 -60.03916931 72.50830078 C-62.02846015 74.5032106 -64.01425501 76.50156118 -66 78.5 C-67.34417301 79.84918556 -68.68857106 81.19814695 -70.03320312 82.546875 C-73.33725707 85.86198312 -76.63817866 89.18018206 -79.9375 92.5 C-78.42803489 95.68086518 -76.85808175 97.79869906 -74.3125 100.25 C-73.68085937 100.86359375 -73.04921875 101.4771875 -72.3984375 102.109375 C-71.91632813 102.56828125 -71.43421875 103.0271875 -70.9375 103.5 C-62.06544402 99.19724324 -58.56354107 93.55491717 -54.9375 84.5 C-52.76897869 78.0383926 -50.5984545 71.37219141 -50.9375 64.5 C-52.43648266 64.38472216 -52.43648266 64.38472216 -54.62133789 67.0703125 Z M18.0625 77.5 C10.34641573 87.27216661 8.13515846 96.14051357 9.0625 108.5 C9.56078616 111.58767066 10.2423671 114.47575992 11.0625 117.5 C16.43572976 112.98931502 21.55225137 108.28504366 26.5625 103.375 C27.30242187 102.67246094 28.04234375 101.96992187 28.8046875 101.24609375 C29.49820313 100.56417969 30.19171875 99.88226563 30.90625 99.1796875 C31.53724609 98.56851074 32.16824219 97.95733398 32.81835938 97.32763672 C34.27129679 95.59006982 34.27129679 95.59006982 33.95507812 93.48583984 C32.91740727 91.17719249 31.74085678 89.82091712 29.9375 88.046875 C29.31359375 87.428125 28.6896875 86.809375 28.046875 86.171875 C27.39203125 85.53765625 26.7371875 84.9034375 26.0625 84.25 C25.40765625 83.6003125 24.7528125 82.950625 24.078125 82.28125 C21.4459899 79.1365566 21.4459899 79.1365566 18.0625 77.5 Z " fill="#8A6AFF" transform="translate(122.9375,6.5)"/>
<path d="M0 0 C2.86282295 1.2184333 5.01613111 2.59441047 7 5 C7.34998047 6.24910156 7.34998047 6.24910156 7.70703125 7.5234375 C8.84980995 10.36366737 8.84980995 10.36366737 12.37890625 11.37109375 C13.76943177 11.74192285 15.16432699 12.09663687 16.5625 12.4375 C24.48490014 14.62268463 31.48525633 17.63811197 37 24 C37.55873807 27.59188759 37.17086998 29.6175767 35.6875 32.9375 C28.93789356 41.94481451 15.47104126 46.44272704 5.23828125 49.9453125 C-4.56364714 53.36136918 -11.76215008 60.19979051 -16.75390625 69.25 C-20.40019095 77.29697313 -23.79339217 86.56697851 -22.359375 95.44140625 C-21.38598666 102.58799684 -20.90908624 108.77760584 -24.97607422 115.04541016 C-27.57287282 118.17454996 -30.26406745 121.05517801 -33.1875 123.875 C-33.66852173 124.34487335 -34.14954346 124.8147467 -34.6451416 125.29885864 C-40.5191481 130.93417008 -40.5191481 130.93417008 -44 133 C-48.29572449 132.69304113 -50.26343838 131.22845447 -53.23950195 128.21459961 C-54.03995438 127.41384506 -54.8404068 126.61309052 -55.66511536 125.78807068 C-56.93883247 124.48338585 -56.93883247 124.48338585 -58.23828125 123.15234375 C-59.55943184 121.82270348 -59.55943184 121.82270348 -60.90727234 120.46620178 C-63.24079242 118.11409483 -65.56526099 115.75372162 -67.88580322 113.38885498 C-70.25835267 110.97529976 -72.64234532 108.57310647 -75.02539062 106.16992188 C-79.6942014 101.45700575 -84.35140807 96.73285557 -89 92 C-87.46207977 88.8308007 -85.70308782 86.09943046 -83.625 83.25 C-75.78545061 72.04367318 -73.07389049 60.99248266 -72.75 47.375 C-72.34395438 39.31330257 -69.40858053 33.64605366 -65 27 C-64.59652344 26.37480469 -64.19304687 25.74960937 -63.77734375 25.10546875 C-56.46577242 15.17326254 -42.92782756 9.68825487 -31.21875 7.3125 C-28.76736524 6.96723454 -26.34703665 6.8691343 -23.875 6.75 C-19.97593604 6.44501187 -18.33222327 5.74328722 -15.625 2.9375 C-11.15611494 -1.44666686 -5.88643738 -1.06881112 0 0 Z " fill="#FDFDFE" transform="translate(146,25)"/>
<path d="M0 0 C0.66 0.33 1.32 0.66 2 1 C0.625 3 0.625 3 -1 5 C-1.66 5 -2.32 5 -3 5 C-3.103125 5.53625 -3.20625 6.0725 -3.3125 6.625 C-4.49714189 10.71739925 -6.66571579 14.35714574 -8.625 18.125 C-10.7776408 22.62597621 -11.13711649 26.07656572 -11.125 31.0625 C-11.13015625 32.21492188 -11.1353125 33.36734375 -11.140625 34.5546875 C-11.01062258 37.73974668 -10.49629789 40.57213487 -9.875 43.6875 C-9.40984375 47.59251544 -9.76504522 48.68389447 -12.16015625 51.90625 C-14.67572586 54.42535768 -17.23493166 56.75976009 -20 59 C-24.5246407 51.81487057 -22.48059085 40.35898193 -20.87084961 32.36010742 C-17.78540498 18.84096818 -11.80980412 7.87320275 0 0 Z " fill="#A471FF" transform="translate(144,77)"/>
<path d="M0 0 C2.62901288 1.52206009 4.84365964 2.84365964 7 5 C7.7271752 9.77737198 7.70269932 13.79537259 5.25 18 C2.1683176 20.73927325 0.24769018 21.77818841 -3.8125 22.5 C-8.42791848 21.77601279 -11.2334031 19.75738917 -14 16 C-15.12052183 12.26284061 -15.78415475 8.56830951 -14 5 C-13.01 5.33 -12.02 5.66 -11 6 C-6.29114683 6.48135261 -6.29114683 6.48135261 -2.125 4.6875 C-0.81453877 2.88214533 -0.81453877 2.88214533 0 0 Z " fill="#262626" transform="translate(144,29)"/>
<path d="M0 0 C2.7841781 0.08188759 4.53384796 0.60480788 6.66796875 2.4140625 C9.21367595 5.15931444 10.80688374 7.30181044 11.8125 10.9375 C10.56009093 15.65811879 7.38878586 18.59392442 4 22 C3.34 21.67 2.68 21.34 2 21 C2.66 20.13375 3.32 19.2675 4 18.375 C6.18131104 14.69403762 6.88713951 13.16955568 6 9 C3.199326 6.19381992 3.199326 6.19381992 0 4 C-0.66 3.34 -1.32 2.68 -2 2 C-1.34 2 -0.68 2 0 2 C0 1.34 0 0.68 0 0 Z " fill="#9D70FF" transform="translate(176,40)"/>
<path d="M0 0 C0.33 0 0.66 0 1 0 C1.18451025 12.66970387 1.18451025 12.66970387 0 18 C-0.33 16.68 -0.66 15.36 -1 14 C-1.66 14 -2.32 14 -3 14 C-2.01 9.38 -1.02 4.76 0 0 Z " fill="#A278FF" transform="translate(73,68)"/>
<path d="M0 0 C0.33 2.31 0.66 4.62 1 7 C-0.32 7.33 -1.64 7.66 -3 8 C-3.99 6.68 -4.98 5.36 -6 4 C-2.25 0 -2.25 0 0 0 Z " fill="#6D56FF" transform="translate(58,107)"/>
<path d="M0 0 C0.33 0.99 0.66 1.98 1 3 C1.66 3 2.32 3 3 3 C1.55746343 6.36591866 -0.33264727 8.51047079 -3 11 C-3.66 10.67 -4.32 10.34 -5 10 C-4.360625 9.0925 -3.72125 8.185 -3.0625 7.25 C-1.38571047 4.60778619 -0.46310002 3.0101501 0 0 Z " fill="#A679FF" transform="translate(183,51)"/>
<path d="M0 0 C-0.33 0.66 -0.66 1.32 -1 2 C-3.97 1.67 -6.94 1.34 -10 1 C-5.64467851 -1.17766075 -4.53374042 -1.03039555 0 0 Z " fill="#765DFF" transform="translate(149,23)"/>
</svg>
