<?xml version="1.0" standalone="no"?>
<!DOCTYPE svg PUBLIC "-//W3C//DTD SVG 20010904//EN"
 "http://www.w3.org/TR/2001/REC-SVG-20010904/DTD/svg10.dtd">
<svg version="1.0" xmlns="http://www.w3.org/2000/svg"
 width="361.000000pt" height="68.000000pt" viewBox="0 0 361.000000 68.000000"
 preserveAspectRatio="xMidYMid meet">

<g transform="translate(0.000000,68.000000) scale(0.100000,-0.100000)"
fill="#000000" stroke="none">
<path d="M36 598 c-12 -40 -1 -72 39 -113 l34 -37 -6 -76 c-5 -75 -4 -78 28
-127 61 -91 165 -119 270 -74 27 12 53 19 56 15 4 -4 2 -29 -3 -56 -6 -28 -7
-50 -4 -50 37 0 110 119 110 178 0 19 8 46 19 60 10 15 42 73 70 129 30 58 67
114 84 129 l32 27 -38 -6 c-93 -15 -218 -101 -269 -186 -84 -141 -170 -191
-249 -144 -42 25 -83 88 -83 128 0 41 16 60 68 87 53 27 76 47 76 68 0 16 -4
17 -42 4 -24 -8 -51 -19 -60 -24 -14 -8 -29 -2 -67 25 -27 20 -52 44 -54 53
-3 12 -6 9 -11 -10z m621 -73 c-7 -16 -37 -21 -37 -5 0 10 32 31 39 25 2 -2 1
-11 -2 -20z"/>
</g>
</svg>
