<svg width="459" height="108" viewBox="0 0 459 108" fill="none" xmlns="http://www.w3.org/2000/svg">
<g clip-path="url(#clip0_3999_133241)">
<path d="M88.0522 35.9371C88.0522 35.9371 73.8052 25.4409 67.0059 46.7458C67.0059 46.7458 56.8898 73.6746 47.2562 95.9763C40.4719 111.754 27.6572 105.84 24.9661 96.7574C18.6266 75.0731 16.7647 68.6682 15.0837 64.2049C15.0837 64.2049 30.5066 73.3324 38.3688 49.6321C43.0876 35.4164 49.4648 19.0955 54.0555 9.02327C60.1463 -4.36671 73.8128 -1.7036 78.3356 9.80435C86.3486 30.1422 88.0522 35.9371 88.0522 35.9371Z" fill="white"/>
<path d="M93.3968 47.1328C89.8463 39.2773 87.9543 35.9373 81.5545 35.9373C75.0114 35.9373 71.6042 39.9096 69.2674 47.6758C68.393 50.577 66.8703 54.1328 68.0312 57.7257L68.5136 59.0647L81.5545 91.0817C85.6627 103.148 89.2357 106.889 95.7185 106.889C102.201 106.889 105.774 103.4 108.149 97.3824C108.903 95.4111 110.742 89.9435 110.244 86.7745C109.536 82.222 107.598 79.4844 106.196 75.6162L93.3968 47.1328Z" fill="white"/>
<path d="M106.317 101.102C109.74 90.5685 106.739 86.9086 102.737 77.6695C97.5354 66.6822 92.8242 55.3975 87.849 44.3359C85.9796 40.3412 82.1879 36.6664 77.4993 36.5697C84.9243 35.8258 88.8064 43.9044 91.4145 49.3868C95.7112 58.5218 99.9476 67.8874 103.95 77.1413C107.772 86.5589 110.682 91.0371 106.317 101.102Z" fill="#16161A"/>
<path d="M86.1299 30.4102C75.7199 24.1839 68.7396 31.0202 65.7771 40.966C62.6187 49.7662 59.2492 58.425 55.8118 67.0913C52.3217 75.6014 48.8316 84.5429 44.8289 92.8522C42.6277 96.9733 39.017 101.124 34.0117 101.623C29.0065 102.121 24.7173 97.9032 24.054 93.2167C25.8932 100.901 34.1022 103.631 39.8839 97.8511C43.2082 94.7045 44.8515 90.0998 46.5777 85.9489C49.1482 79.6779 51.9749 72.8118 54.455 66.5483C57.4702 58.9383 61.8197 48.1222 64.7143 40.5941C67.9783 30.4474 75.7651 23.3433 86.1676 30.4102H86.1299Z" fill="#16161A"/>
<path d="M131.953 14.8778C131.953 6.85128 124.664 0.0595703 116.53 0.0595703C113.084 0.0614432 109.747 1.25792 107.103 3.4401C104.459 5.62228 102.676 8.65153 102.065 11.999L93.8635 40.7131L112.302 81.7459L130.099 23.1945H130.061C131.592 18.4485 131.953 17.5409 131.953 14.8778Z" fill="white"/>
<path d="M123.126 1.58457C110.831 1.64408 107.552 7.08189 104.703 17.9947C102.185 26.9586 99.5017 35.848 96.3281 44.6334C98.2579 35.5207 100.678 26.542 103.278 17.6079C106.218 6.57604 110.605 0.2902 123.126 1.58457Z" fill="#16161A"/>
<path d="M31.5845 58.5587C37.9693 50.7628 36.7556 42.3643 35.0822 36.7256L27.1748 10.087C26.6536 8.33073 25.7732 6.69851 24.5879 5.29113C23.4025 3.88376 21.9374 2.73111 20.283 1.90434C18.6286 1.07757 16.8201 0.59424 14.969 0.484193C13.1179 0.374146 11.2636 0.639725 9.52062 1.26452L8.93265 1.4728C5.65693 2.65431 2.96802 5.03522 1.42403 8.12135C-0.119963 11.2075 -0.400454 14.7618 0.640774 18.0466L11.1941 51.3802C14.2093 58.6034 14.1339 60.9392 18.8678 62.6353C26.0214 65.2165 31.5845 58.5587 31.5845 58.5587Z" fill="white"/>
<path d="M11.8656 1.01902C4.32758 3.99457 1.2219 9.66301 4.13159 17.3251L6.32517 23.9754C9.20471 32.9021 11.9787 41.8287 14.617 50.7554C15.4161 52.7192 16.6222 56.4387 17.8283 58.3728C19.2153 60.8797 22.0797 61.8839 24.8311 62.1666C17.2931 62.1666 16.1774 56.7288 13.622 51.0603C10.6068 42.213 7.72725 33.3285 4.98339 24.4069C3.91299 20.375 1.40281 14.8181 2.14908 10.5557C2.77474 5.57162 7.33527 2.28364 11.8958 1.00415L11.8656 1.01902Z" fill="#16161A"/>
</g>
<g clip-path="url(#clip1_3999_133241)">
<path d="M248.093 53.571C248.093 69.4702 242.878 82.3254 232.448 92.1368C222.017 101.948 208.883 106.824 193.043 106.765C177.115 106.765 164.01 101.86 153.729 92.0481C143.447 82.2368 138.299 69.4111 138.284 53.571C138.284 37.6719 143.402 24.7945 153.639 14.9388C163.876 5.08305 177.107 0.103433 193.334 0C209.501 0 222.681 4.94263 232.872 14.8279C243.064 24.7131 248.138 37.6275 248.093 53.571ZM211.684 34.4655C209.351 31.9574 206.495 29.9839 203.314 28.6824C200.133 27.3809 196.705 26.7827 193.267 26.9296C189.815 26.7875 186.372 27.3896 183.177 28.6944C179.982 29.9992 177.111 31.9758 174.761 34.4876C170.033 39.7329 167.527 46.5841 167.765 53.6153C167.515 60.6085 170.025 67.4226 174.761 72.6101C177.144 75.0836 180.036 77.019 183.241 78.285C186.446 79.5509 189.889 80.1176 193.334 79.9465C196.774 80.0891 200.205 79.4892 203.389 78.188C206.572 76.8869 209.433 74.9157 211.773 72.4106C216.258 67.0672 218.714 60.3347 218.714 53.3827C218.714 46.4306 216.258 39.698 211.773 34.3546L211.684 34.4655Z" fill="white"/>
<path d="M339.284 106.145C333.011 106.145 328.28 102.539 325.092 95.3286L315.883 75.3807L306.674 95.3286C303.352 102.539 298.576 106.145 292.348 106.145C286.134 106.145 281.172 102.532 277.641 95.3286L255.29 26.6194C254.168 23.356 253.573 19.9377 253.524 16.4903C253.628 13.0585 254.914 9.76551 257.168 7.15916C259.604 4.10049 263.873 2.57116 270.153 2.72631C276.434 2.88146 280.636 6.29473 282.938 13.2986L294.449 48.6285L301.668 33.1135C304.998 26.0209 309.804 22.4525 316.106 22.4525C322.409 22.4525 327.148 26.0209 330.389 33.1135L337.451 48.6285L349.119 13.2986C351.413 6.29473 355.645 2.77064 361.814 2.72631C367.983 2.68198 372.311 4.20392 374.8 7.29214C377.089 9.89137 378.4 13.1963 378.51 16.6455C378.465 20.0715 377.869 23.4685 376.744 26.708L354.17 95.4172C350.549 102.569 345.587 106.145 339.284 106.145Z" fill="white"/>
<path d="M423.278 107.142C413.988 107.395 404.726 106.014 395.921 103.064C388.635 100.338 384.969 96.5254 384.969 91.6049C384.71 87.6746 385.652 83.7582 387.674 80.3676C388.414 79.1852 389.448 78.2115 390.677 77.5399C391.906 76.8684 393.288 76.5217 394.692 76.5332C398.703 76.7638 402.653 77.6087 406.403 79.0378C411.493 80.7775 416.874 81.53 422.25 81.2542C427.897 81.003 430.878 78.528 431.19 73.8292C431.503 69.1304 430.2 66.0717 427.279 64.6532C424.015 63.1741 420.379 62.7031 416.841 63.3012C412.684 63.811 410.628 60.9074 410.628 54.6128C410.628 48.3181 412.505 45.2373 416.26 45.3702C419.69 45.5709 423.097 44.7029 426.005 42.8879C427.35 42.0363 428.441 40.843 429.164 39.4321C429.888 38.0212 430.217 36.4441 430.118 34.8644C430.225 33.3785 430.028 31.8864 429.541 30.4774C429.053 29.0683 428.284 27.7712 427.279 26.6636C426.38 25.7551 425.304 25.0371 424.117 24.5532C422.93 24.0694 421.656 23.8297 420.373 23.8488C416.747 24.1379 413.244 25.2856 410.158 27.1956C407.081 29.127 403.575 30.2835 399.944 30.5645C398.567 30.5529 397.217 30.1744 396.038 29.4686C394.858 28.7629 393.892 27.7559 393.239 26.5528C391.337 23.1761 390.446 19.3319 390.669 15.4707C390.669 10.7719 393.984 7.14431 400.615 4.58803C407.757 1.92979 415.338 0.621733 422.965 0.731472C431.159 0.699029 439.214 2.83363 446.3 6.91532C453.541 11.0083 457.162 17.9235 457.162 27.661C457.316 32.1504 456.243 36.5976 454.055 40.5309C451.867 44.4643 448.647 47.7372 444.735 50.0026C453.675 55.1743 458.145 63.7371 458.145 75.691C458.145 87.6449 455.061 95.8826 448.892 100.404C442.798 104.896 434.26 107.142 423.278 107.142Z" fill="white"/>
</g>
<defs>
<clipPath id="clip0_3999_133241">
<rect width="131.916" height="107.12" fill="white"/>
</clipPath>
<clipPath id="clip1_3999_133241">
<rect width="320.368" height="107.12" fill="white" transform="translate(137.867)"/>
</clipPath>
</defs>
</svg>
